<svg version="1.0" xmlns="http://www.w3.org/2000/svg"
 width="640.000000pt" height="640.000000pt" viewBox="0 0 640.000000 640.000000"
 preserveAspectRatio="xMidYMid meet">

<g transform="translate(0.000000,0.000000) scale(0.100000,0.100000)"
fill="#000000" stroke="none">
<path d="M1838 3226 c-747 -1294 -1358 -2356 -1358 -2359 0 -4 1224 -7 2720
-7 1496 0 2720 3 2720 7 0 10 -2714 4712 -2720 4712 -3 0 -616 -1059 -1362
-2353z m2658 -44 l1290 -2237 -1293 -3 c-711 -1 -1875 -1 -2586 0 l-1293 3
1290 2237 c710 1230 1293 2237 1296 2237 3 0 586 -1007 1296 -2237z"/>
</g>
</svg>
